<svg xmlns="http://www.w3.org/2000/svg" viewBox="0 0 800 600" role="img" aria-label="Sky gym with city view">
  <defs>
    <linearGradient id="gwin" x1="0" y1="0" x2="0" y2="1">
      <stop offset="0" stop-color="#14203a"/>
      <stop offset="1" stop-color="#7a5a50"/>
    </linearGradient>
  </defs>
  <rect width="800" height="600" fill="#1e1b17"/>
  <rect x="50" y="60" width="700" height="330" fill="url(#gwin)"/>
  <g fill="#101828">
    <rect x="90" y="240" width="70" height="150"/>
    <rect x="190" y="200" width="50" height="190"/>
    <rect x="270" y="260" width="80" height="130"/>
    <rect x="470" y="210" width="60" height="180"/>
    <rect x="560" y="270" width="90" height="120"/>
    <rect x="680" y="230" width="50" height="160"/>
  </g>
  <g fill="#d9a55e" opacity=".4">
    <rect x="196" y="212" width="38" height="140"/>
    <rect x="476" y="222" width="48" height="130"/>
  </g>
  <g stroke="#12100d" stroke-width="10">
    <line x1="283" y1="60" x2="283" y2="390"/>
    <line x1="516" y1="60" x2="516" y2="390"/>
  </g>
  <rect x="42" y="52" width="716" height="346" fill="none" stroke="#12100d" stroke-width="16"/>
  <rect x="0" y="390" width="800" height="210" fill="#2b2721"/>
  <rect x="0" y="390" width="800" height="8" fill="#3f382e"/>
  <!-- treadmill -->
  <g>
    <path d="M120 520l150-14v22l-150 14z" fill="#3a352e"/>
    <rect x="118" y="516" width="154" height="8" transform="rotate(-5 118 516)" fill="#c8a566" opacity=".0"/>
    <rect x="250" y="430" width="10" height="80" fill="#57504a"/>
    <rect x="222" y="424" width="66" height="10" rx="5" fill="#c8a566"/>
    <rect x="118" y="536" width="14" height="14" fill="#17130f"/>
    <rect x="258" y="522" width="14" height="14" fill="#17130f"/>
  </g>
  <!-- dumbbell rack -->
  <g>
    <rect x="360" y="470" width="180" height="12" rx="6" fill="#57504a"/>
    <rect x="360" y="510" width="180" height="12" rx="6" fill="#57504a"/>
    <rect x="368" y="482" width="12" height="60" fill="#3a352e"/>
    <rect x="520" y="482" width="12" height="60" fill="#3a352e"/>
    <g fill="#c8a566">
      <rect x="388" y="452" width="12" height="22" rx="3"/><rect x="416" y="452" width="12" height="22" rx="3"/>
      <rect x="404" y="460" width="10" height="5"/>
      <rect x="452" y="452" width="12" height="22" rx="3"/><rect x="480" y="452" width="12" height="22" rx="3"/>
      <rect x="468" y="460" width="10" height="5"/>
    </g>
    <g fill="#dfc08c">
      <rect x="388" y="492" width="12" height="22" rx="3"/><rect x="416" y="492" width="12" height="22" rx="3"/>
      <rect x="404" y="500" width="10" height="5"/>
      <rect x="452" y="492" width="12" height="22" rx="3"/><rect x="480" y="492" width="12" height="22" rx="3"/>
      <rect x="468" y="500" width="10" height="5"/>
    </g>
  </g>
  <!-- yoga ball + mat -->
  <circle cx="640" cy="520" r="34" fill="#8a6f4e"/>
  <path d="M600 560a40 8 0 0 0 80 0z" fill="#17130f" opacity=".4"/>
  <rect x="580" y="560" width="140" height="10" rx="5" fill="#54754f"/>
</svg>
