<svg xmlns="http://www.w3.org/2000/svg" viewBox="0 0 600 440" role="img" aria-label="Two bedroom floor plan, schematic">
  <style>
    .wall{fill:none;stroke:#232a37;stroke-width:6}
    .inner{fill:none;stroke:#232a37;stroke-width:3}
    .lbl{font:600 15px system-ui,sans-serif;fill:#232a37;letter-spacing:.06em}
    .sub{font:400 11px system-ui,sans-serif;fill:#707a87;letter-spacing:.08em}
    .gold{stroke:#bd9557}
  </style>
  <rect width="600" height="440" fill="#f4f0e7"/>
  <rect x="50" y="40" width="460" height="350" class="wall"/>
  <!-- balcony -->
  <rect x="510" y="90" width="56" height="200" class="wall gold" stroke-dasharray="10 6"/>
  <text x="538" y="196" class="sub" text-anchor="middle" transform="rotate(90 538 192)">BALCONY</text>
  <!-- inner walls -->
  <line x1="280" y1="40" x2="280" y2="180" class="inner"/>
  <line x1="280" y1="180" x2="510" y2="180" class="inner"/>
  <line x1="360" y1="180" x2="360" y2="390" class="inner"/>
  <line x1="50" y1="220" x2="170" y2="220" class="inner"/>
  <line x1="170" y1="220" x2="170" y2="390" class="inner"/>
  <!-- beds -->
  <rect x="310" y="60" width="120" height="86" class="inner"/>
  <rect x="322" y="66" width="40" height="24" class="inner"/>
  <rect x="378" y="66" width="40" height="24" class="inner"/>
  <rect x="390" y="230" width="100" height="120" class="inner"/>
  <rect x="398" y="238" width="34" height="22" class="inner"/>
  <rect x="446" y="238" width="34" height="22" class="inner"/>
  <!-- living -->
  <rect x="80" y="80" width="130" height="34" rx="8" class="inner"/>
  <rect x="80" y="140" width="60" height="34" rx="6" class="inner"/>
  <circle cx="230" cy="300" r="32" class="inner"/>
  <!-- kitchen -->
  <rect x="70" y="240" width="70" height="120" class="inner"/>
  <circle cx="92" cy="270" r="8" class="inner"/>
  <circle cx="116" cy="270" r="8" class="inner"/>
  <rect x="78" y="310" width="30" height="20" class="inner"/>
  <!-- door arc -->
  <path d="M280 110a34 34 0 0 1-34 34" fill="none" stroke="#bd9557" stroke-width="2"/>
  <line x1="280" y1="110" x2="280" y2="144" stroke="#f4f0e7" stroke-width="8"/>
  <!-- labels -->
  <text x="160" y="64" class="lbl">LIVING</text>
  <text x="310" y="170" class="lbl" font-size="13">MASTER SUITE</text>
  <text x="390" y="220" class="lbl" font-size="13">BEDROOM 2</text>
  <text x="70" y="234" class="lbl" font-size="12">KITCHEN</text>
  <text x="290" y="376" class="sub">108 SQM · TYPE C</text>
</svg>
