<svg xmlns="http://www.w3.org/2000/svg" viewBox="0 0 600 440" role="img" aria-label="Penthouse floor plan, schematic">
  <style>
    .wall{fill:none;stroke:#2b2620;stroke-width:6}
    .inner{fill:none;stroke:#2b2620;stroke-width:3}
    .lbl{font:600 15px system-ui,sans-serif;fill:#2b2620;letter-spacing:.06em}
    .sub{font:400 11px system-ui,sans-serif;fill:#8a7c66;letter-spacing:.08em}
    .gold{stroke:#b6935c}
  </style>
  <rect width="600" height="440" fill="#f5f1e8"/>
  <rect x="40" y="40" width="440" height="350" class="wall"/>
  <!-- wraparound terrace -->
  <rect x="480" y="60" width="80" height="330" class="wall gold" stroke-dasharray="10 6"/>
  <rect x="120" y="390" width="440" height="0" class="wall gold"/>
  <text x="520" y="230" class="sub" text-anchor="middle" transform="rotate(90 520 226)">PRIVATE TERRACE</text>
  <!-- inner walls -->
  <line x1="250" y1="40" x2="250" y2="160" class="inner"/>
  <line x1="250" y1="160" x2="480" y2="160" class="inner"/>
  <line x1="350" y1="160" x2="350" y2="290" class="inner"/>
  <line x1="250" y1="290" x2="480" y2="290" class="inner"/>
  <line x1="250" y1="290" x2="250" y2="390" class="inner"/>
  <line x1="40" y1="230" x2="150" y2="230" class="inner"/>
  <line x1="150" y1="230" x2="150" y2="390" class="inner"/>
  <!-- beds -->
  <rect x="280" y="56" width="120" height="84" class="inner"/>
  <rect x="292" y="62" width="40" height="22" class="inner"/>
  <rect x="348" y="62" width="40" height="22" class="inner"/>
  <rect x="370" y="180" width="96" height="94" class="inner"/>
  <rect x="378" y="186" width="30" height="18" class="inner"/>
  <rect x="424" y="186" width="30" height="18" class="inner"/>
  <rect x="280" y="306" width="96" height="72" class="inner"/>
  <rect x="288" y="312" width="30" height="18" class="inner"/>
  <rect x="334" y="312" width="30" height="18" class="inner"/>
  <!-- living / dining -->
  <rect x="66" y="80" width="130" height="34" rx="8" class="inner"/>
  <rect x="66" y="140" width="60" height="34" rx="6" class="inner"/>
  <ellipse cx="200" cy="300" rx="36" ry="26" class="inner"/>
  <!-- kitchen -->
  <rect x="58" y="250" width="66" height="120" class="inner"/>
  <circle cx="80" cy="280" r="8" class="inner"/>
  <circle cx="102" cy="280" r="8" class="inner"/>
  <rect x="66" y="320" width="30" height="20" class="inner"/>
  <!-- labels -->
  <text x="150" y="64" class="lbl">LIVING</text>
  <text x="280" y="154" class="lbl" font-size="13">MASTER SUITE</text>
  <text x="256" y="208" class="lbl" font-size="12">BED 3</text>
  <text x="370" y="170" class="sub" font-size="10"></text>
  <text x="380" y="288" class="lbl" font-size="12">BED 2</text>
  <text x="58" y="244" class="lbl" font-size="12">KITCHEN</text>
  <text x="286" y="374" class="sub"></text>
  <text x="60" y="418" class="sub">172 SQM + TERRACE · PENTHOUSE</text>
</svg>
