<svg xmlns="http://www.w3.org/2000/svg" viewBox="0 0 800 600" role="img" aria-label="Rooftop infinity pool at dusk">
  <defs>
    <linearGradient id="psky" x1="0" y1="0" x2="0" y2="1">
      <stop offset="0" stop-color="#16203a"/>
      <stop offset=".6" stop-color="#4a4258"/>
      <stop offset="1" stop-color="#c98a5f"/>
    </linearGradient>
    <linearGradient id="pwater" x1="0" y1="0" x2="0" y2="1">
      <stop offset="0" stop-color="#63c6d2"/>
      <stop offset="1" stop-color="#2a7e97"/>
    </linearGradient>
  </defs>
  <rect width="800" height="600" fill="url(#psky)"/>
  <circle cx="640" cy="120" r="34" fill="#f2e8d8" opacity=".85"/>
  <g fill="#131b2c">
    <rect x="30" y="240" width="60" height="140"/>
    <rect x="110" y="200" width="46" height="180"/>
    <rect x="180" y="260" width="70" height="120"/>
    <rect x="560" y="230" width="56" height="150"/>
    <rect x="640" y="260" width="80" height="120"/>
    <rect x="740" y="220" width="40" height="160"/>
  </g>
  <g fill="#d9a55e" opacity=".4">
    <rect x="118" y="212" width="30" height="120"/>
    <rect x="568" y="242" width="40" height="100"/>
  </g>
  <!-- deck -->
  <rect x="0" y="380" width="800" height="220" fill="#3a3630"/>
  <rect x="0" y="380" width="800" height="10" fill="#57504a"/>
  <!-- infinity pool -->
  <rect x="60" y="410" width="680" height="150" rx="6" fill="url(#pwater)"/>
  <g stroke="#bdeef2" stroke-width="3" opacity=".55" fill="none">
    <path d="M90 450c60 12 140 12 200 0s140-12 200 0 140 12 160 4"/>
    <path d="M90 500c60 12 140 12 200 0s140-12 200 0 140 12 160 4"/>
  </g>
  <rect x="60" y="406" width="680" height="6" rx="3" fill="#e6f7f9" opacity=".7"/>
  <!-- loungers -->
  <g fill="#c8a566">
    <path d="M600 585h70l14-24h-70z" opacity=".95"/>
    <path d="M690 585h70l14-24h-70z" opacity=".8"/>
  </g>
  <g fill="#1d1a16">
    <rect x="612" y="585" width="6" height="12"/><rect x="650" y="585" width="6" height="12"/>
    <rect x="702" y="585" width="6" height="12"/><rect x="740" y="585" width="6" height="12"/>
  </g>
</svg>
